<?xml version="1.0" standalone="no"?>
<!DOCTYPE svg PUBLIC "-//W3C//DTD SVG 20010904//EN"
 "http://www.w3.org/TR/2001/REC-SVG-20010904/DTD/svg10.dtd">
<svg version="1.0" xmlns="http://www.w3.org/2000/svg"
 width="600.000000pt" height="600.000000pt" viewBox="0 0 600.000000 600.000000"
 preserveAspectRatio="xMidYMid meet">

<g transform="translate(0.000000,600.000000) scale(0.100000,-0.100000)"
fill="#000000" stroke="none">
<path d="M1324 3599 c-359 -28 -634 -188 -759 -443 -25 -50 -52 -118 -60 -151
-36 -139 -36 -361 0 -500 8 -33 36 -102 61 -154 38 -77 62 -110 128 -176 134
-135 299 -214 535 -257 136 -24 449 -29 591 -9 206 29 424 86 570 148 l45 20
0 136 1 135 -26 -18 c-89 -62 -276 -135 -453 -174 -422 -95 -818 -33 -1008
156 -85 86 -159 250 -159 354 0 32 0 32 63 39 34 4 403 5 820 3 l757 -3 0 87
c0 527 -454 858 -1106 807z m276 -213 c261 -48 444 -208 504 -442 9 -34 16
-76 16 -92 0 -30 -2 -31 -57 -38 -59 -7 -1273 3 -1281 11 -3 2 2 43 11 91 56
306 291 480 647 483 47 0 119 -6 160 -13z"/>
<path d="M3456 3595 c-140 -36 -259 -120 -341 -243 l-43 -63 -4 128 c-3 70 -8
136 -13 146 -6 15 -25 17 -187 17 -141 0 -178 -3 -172 -12 5 -7 27 -42 50 -78
166 -258 208 -502 134 -782 -11 -42 -52 -157 -91 -255 -90 -228 -129 -358
-136 -455 l-6 -78 208 0 207 0 -58 63 c-113 121 -150 239 -140 457 8 210 58
402 155 605 96 200 219 285 410 285 196 0 367 -103 443 -267 28 -58 33 -82 36
-163 5 -125 -9 -180 -108 -435 -88 -226 -126 -346 -140 -442 -15 -110 -30
-103 213 -103 l211 0 -40 29 c-75 55 -141 172 -164 289 -18 90 -8 325 18 433
33 135 108 355 142 414 92 161 227 245 395 245 134 0 251 -46 345 -136 66 -63
103 -126 126 -215 27 -103 15 -176 -62 -395 -126 -360 -143 -429 -130 -516 22
-145 203 -220 344 -143 115 62 179 198 227 481 42 250 26 267 -20 21 -46 -247
-101 -347 -189 -347 -104 0 -187 116 -202 282 -11 123 8 237 87 518 12 45 23
119 26 185 9 193 -34 323 -141 431 -99 99 -214 130 -366 100 -135 -28 -249
-96 -327 -198 -23 -29 -69 -108 -102 -173 -34 -69 -61 -114 -64 -105 -3 8 -8
43 -11 77 -8 84 -40 178 -85 243 -40 59 -135 131 -199 150 -61 19 -172 21
-236 5z"/>
</g>
</svg>
