<?xml version="1.0" standalone="no"?>
<!DOCTYPE svg PUBLIC "-//W3C//DTD SVG 20010904//EN"
 "http://www.w3.org/TR/2001/REC-SVG-20010904/DTD/svg10.dtd">
<svg version="1.0" xmlns="http://www.w3.org/2000/svg"
 width="600.000000pt" height="600.000000pt" viewBox="0 0 600.000000 600.000000"
 preserveAspectRatio="xMidYMid meet">

<g transform="translate(0.000000,600.000000) scale(0.100000,-0.100000)"
fill="#000000" stroke="none">
<path d="M2650 2955 l0 -1036 138 3 137 3 5 1012 5 1012 301 -1012 300 -1012
288 0 288 0 302 1015 301 1014 3 -1017 2 -1017 140 0 140 0 0 1035 0 1035
-282 0 -283 0 -294 -993 c-162 -545 -300 -1008 -307 -1027 -11 -34 -12 -34
-18 -10 -4 14 -141 475 -305 1025 l-297 1000 -282 3 -282 2 0 -1035z"/>
<path d="M1324 3599 c-359 -28 -634 -188 -759 -443 -25 -50 -52 -118 -60 -151
-36 -139 -36 -361 0 -500 8 -33 36 -102 61 -154 38 -77 62 -110 128 -176 134
-135 299 -214 535 -257 136 -24 449 -29 591 -9 206 29 424 86 570 148 l45 20
0 136 1 135 -26 -18 c-89 -62 -276 -135 -453 -174 -422 -95 -818 -33 -1008
156 -85 86 -159 250 -159 354 0 32 0 32 63 39 34 4 403 5 820 3 l757 -3 0 87
c0 527 -454 858 -1106 807z m276 -213 c261 -48 444 -208 504 -442 9 -34 16
-76 16 -92 0 -30 -2 -31 -57 -38 -59 -7 -1273 3 -1281 11 -3 2 2 43 11 91 56
306 291 480 647 483 47 0 119 -6 160 -13z"/>
</g>
</svg>
