<?xml version="1.0" standalone="no"?>
<!DOCTYPE svg PUBLIC "-//W3C//DTD SVG 20010904//EN"
 "http://www.w3.org/TR/2001/REC-SVG-20010904/DTD/svg10.dtd">
<svg version="1.0" xmlns="http://www.w3.org/2000/svg"
 width="600.000000pt" height="600.000000pt" viewBox="0 0 600.000000 600.000000"
 preserveAspectRatio="xMidYMid meet">

<g transform="translate(0.000000,600.000000) scale(0.100000,-0.100000)"
fill="#000000" stroke="none">
<path d="M2500 3976 c0 -8 16 -16 39 -20 56 -9 91 -42 102 -96 11 -59 11
-1751 0 -1810 -11 -52 -36 -76 -98 -93 -24 -6 -43 -17 -43 -24 0 -10 39 -13
175 -13 143 0 175 3 175 14 0 8 -12 17 -27 20 -16 4 -41 12 -56 18 -59 23 -57
-7 -56 875 l1 808 34 -130 c93 -356 159 -496 250 -536 91 -41 167 17 209 158
17 58 49 93 67 75 13 -13 10 -27 -41 -172 -56 -158 -73 -327 -51 -485 16 -108
38 -189 115 -423 71 -217 71 -217 101 -220 28 -3 32 1 47 40 9 24 158 448 332
943 174 495 318 902 321 904 2 3 3 -396 2 -886 -3 -888 -3 -892 -24 -920 -14
-18 -39 -33 -72 -43 -29 -8 -52 -20 -52 -27 0 -10 52 -13 235 -13 194 0 235 2
235 14 0 8 -12 17 -27 20 -16 4 -41 12 -56 18 -59 23 -57 -18 -57 993 l0 927
29 28 c18 19 44 32 70 36 25 4 41 12 41 20 0 11 -31 14 -162 14 l-163 0 -319
-911 -320 -911 -13 38 c-34 97 -95 338 -109 429 -25 159 -3 325 61 471 41 92
30 147 -34 174 -71 29 -146 -19 -176 -112 -24 -73 -41 -98 -69 -98 -42 0 -74
55 -130 225 -41 122 -113 410 -147 583 l-22 112 -158 0 c-128 0 -159 -3 -159
-14z"/>
<path d="M1324 3599 c-359 -28 -634 -188 -759 -443 -25 -50 -52 -118 -60 -151
-36 -139 -36 -361 0 -500 8 -33 36 -102 61 -154 38 -77 62 -110 128 -176 134
-135 299 -214 535 -257 136 -24 449 -29 591 -9 206 29 424 86 570 148 l45 20
0 136 1 135 -26 -18 c-89 -62 -276 -135 -453 -174 -422 -95 -818 -33 -1008
156 -85 86 -159 250 -159 354 0 32 0 32 63 39 34 4 403 5 820 3 l757 -3 0 87
c0 527 -454 858 -1106 807z m276 -213 c261 -48 444 -208 504 -442 9 -34 16
-76 16 -92 0 -30 -2 -31 -57 -38 -59 -7 -1273 3 -1281 11 -3 2 2 43 11 91 56
306 291 480 647 483 47 0 119 -6 160 -13z"/>
</g>
</svg>
