<?xml version="1.0" standalone="no"?>
<!DOCTYPE svg PUBLIC "-//W3C//DTD SVG 20010904//EN"
 "http://www.w3.org/TR/2001/REC-SVG-20010904/DTD/svg10.dtd">
<svg version="1.0" xmlns="http://www.w3.org/2000/svg"
 width="600.000000pt" height="600.000000pt" viewBox="0 0 600.000000 600.000000"
 preserveAspectRatio="xMidYMid meet">

<g transform="translate(0.000000,600.000000) scale(0.100000,-0.100000)"
fill="#000000" stroke="none">
<path d="M2655 3978 c-3 -7 -4 -472 -3 -1033 l3 -1020 243 -3 242 -2 0 52 c0
29 -11 249 -25 488 -27 480 -30 580 -15 580 6 0 10 -6 10 -12 1 -73 70 -1090
75 -1098 4 -6 66 -10 165 -10 157 0 160 0 164 23 3 12 14 177 26 367 11 190
25 428 31 530 10 168 18 214 34 198 3 -3 -8 -249 -26 -547 -17 -298 -28 -548
-25 -556 4 -13 42 -15 240 -15 167 0 237 3 242 12 5 8 9 1911 4 2046 0 9 -74
12 -334 12 -295 0 -335 -2 -340 -16 -3 -9 -6 -263 -6 -565 0 -359 -3 -549 -10
-549 -12 0 -15 245 -10 745 1 188 0 351 -4 363 l-7 22 -335 0 c-258 0 -336 -3
-339 -12z"/>
<path d="M1324 3599 c-359 -28 -634 -188 -759 -443 -25 -50 -52 -118 -60 -151
-36 -139 -36 -361 0 -500 8 -33 36 -102 61 -154 38 -77 62 -110 128 -176 134
-135 299 -214 535 -257 136 -24 449 -29 591 -9 206 29 424 86 570 148 l45 20
0 136 1 135 -26 -18 c-89 -62 -276 -135 -453 -174 -422 -95 -818 -33 -1008
156 -85 86 -159 250 -159 354 0 32 0 32 63 39 34 4 403 5 820 3 l757 -3 0 87
c0 527 -454 858 -1106 807z m276 -213 c261 -48 444 -208 504 -442 9 -34 16
-76 16 -92 0 -30 -2 -31 -57 -38 -59 -7 -1273 3 -1281 11 -3 2 2 43 11 91 56
306 291 480 647 483 47 0 119 -6 160 -13z"/>
</g>
</svg>
