<?xml version="1.0" standalone="no"?>
<!DOCTYPE svg PUBLIC "-//W3C//DTD SVG 20010904//EN"
 "http://www.w3.org/TR/2001/REC-SVG-20010904/DTD/svg10.dtd">
<svg version="1.0" xmlns="http://www.w3.org/2000/svg"
 width="600.000000pt" height="600.000000pt" viewBox="0 0 600.000000 600.000000"
 preserveAspectRatio="xMidYMid meet">

<g transform="translate(0.000000,600.000000) scale(0.100000,-0.100000)"
fill="#000000" stroke="none">
<path d="M1324 3599 c-359 -28 -634 -188 -759 -443 -25 -50 -52 -118 -60 -151
-36 -139 -36 -361 0 -500 8 -33 36 -102 61 -154 38 -77 62 -110 128 -176 134
-135 299 -214 535 -257 136 -24 449 -29 591 -9 206 29 424 86 570 148 l45 20
0 136 1 135 -26 -18 c-89 -62 -276 -135 -453 -174 -422 -95 -818 -33 -1008
156 -85 86 -159 250 -159 354 0 32 0 32 63 39 34 4 403 5 820 3 l757 -3 0 87
c0 527 -454 858 -1106 807z m276 -213 c261 -48 444 -208 504 -442 9 -34 16
-76 16 -92 0 -30 -2 -31 -57 -38 -59 -7 -1273 3 -1281 11 -3 2 2 43 11 91 56
306 291 480 647 483 47 0 119 -6 160 -13z"/>
<path d="M2650 2755 c0 -454 2 -825 4 -825 3 0 57 59 120 130 l116 130 1 193
1 192 18 -65 c89 -327 344 -561 638 -586 l67 -5 118 136 117 137 0 366 c0 476
16 608 95 769 67 135 184 220 320 231 l65 5 2 -819 3 -818 118 133 117 133 0
695 0 695 -177 -4 c-157 -5 -188 -8 -258 -31 -268 -88 -466 -332 -520 -644
-12 -67 -15 -180 -15 -529 l0 -444 -47 6 c-169 21 -292 82 -419 209 -79 78
-97 104 -143 195 -95 193 -95 192 -99 753 l-3 487 -120 0 -119 0 0 -825z"/>
</g>
</svg>
