<?xml version="1.0" standalone="no"?>
<!DOCTYPE svg PUBLIC "-//W3C//DTD SVG 20010904//EN"
 "http://www.w3.org/TR/2001/REC-SVG-20010904/DTD/svg10.dtd">
<svg version="1.0" xmlns="http://www.w3.org/2000/svg"
 width="600.000000pt" height="600.000000pt" viewBox="0 0 600.000000 600.000000"
 preserveAspectRatio="xMidYMid meet">

<g transform="translate(0.000000,600.000000) scale(0.100000,-0.100000)"
fill="#000000" stroke="none">
<path d="M2650 2955 l0 -1035 371 0 371 0 -6 48 c-13 103 -106 1051 -105 1073
1 13 65 -232 143 -546 l141 -570 196 -3 196 -2 12 42 c6 24 72 286 146 583 74
297 134 533 134 525 1 -8 -24 -260 -54 -560 -30 -300 -55 -555 -55 -567 l0
-23 370 0 370 0 0 1035 0 1035 -398 0 -398 0 -157 -587 c-116 -432 -158 -604
-159 -648 0 -48 -2 -54 -8 -30 -4 17 -8 50 -9 75 -1 25 -70 302 -154 615
l-154 570 -396 3 -397 2 0 -1035z"/>
<path d="M1324 3599 c-359 -28 -634 -188 -759 -443 -25 -50 -52 -118 -60 -151
-36 -139 -36 -361 0 -500 8 -33 36 -102 61 -154 38 -77 62 -110 128 -176 134
-135 299 -214 535 -257 136 -24 449 -29 591 -9 206 29 424 86 570 148 l45 20
0 136 1 135 -26 -18 c-89 -62 -276 -135 -453 -174 -422 -95 -818 -33 -1008
156 -85 86 -159 250 -159 354 0 32 0 32 63 39 34 4 403 5 820 3 l757 -3 0 87
c0 527 -454 858 -1106 807z m276 -213 c261 -48 444 -208 504 -442 9 -34 16
-76 16 -92 0 -30 -2 -31 -57 -38 -59 -7 -1273 3 -1281 11 -3 2 2 43 11 91 56
306 291 480 647 483 47 0 119 -6 160 -13z"/>
</g>
</svg>
