<?xml version="1.0" standalone="no"?>
<!DOCTYPE svg PUBLIC "-//W3C//DTD SVG 20010904//EN"
 "http://www.w3.org/TR/2001/REC-SVG-20010904/DTD/svg10.dtd">
<svg version="1.0" xmlns="http://www.w3.org/2000/svg"
 width="600.000000pt" height="600.000000pt" viewBox="0 0 600.000000 600.000000"
 preserveAspectRatio="xMidYMid meet">

<g transform="translate(0.000000,600.000000) scale(0.100000,-0.100000)"
fill="#000000" stroke="none">
<path d="M3550 3819 c-259 -22 -434 -118 -515 -282 -90 -184 -66 -380 61 -496
62 -57 124 -81 206 -81 72 0 124 24 167 79 17 21 31 41 31 44 0 3 -25 -7 -56
-24 -94 -49 -181 -37 -262 36 -32 29 -59 66 -78 107 -25 54 -29 75 -29 153 0
123 28 196 107 280 95 102 218 151 408 162 89 5 119 2 193 -16 83 -21 397
-117 403 -124 2 -2 -24 -23 -58 -47 -105 -77 -242 -251 -393 -500 -32 -52
-134 -232 -227 -400 -199 -356 -244 -424 -357 -543 -97 -100 -188 -165 -287
-203 -135 -52 -365 -39 -514 29 l-55 25 40 17 c22 9 55 23 73 31 l34 14 -7 75
c-4 41 -4 95 -1 119 l7 45 35 -15 c90 -37 219 -24 328 33 71 38 195 164 234
239 156 299 -2 623 -348 710 -87 22 -241 15 -328 -15 l-64 -22 -77 78 c-186
186 -435 275 -771 274 -336 0 -569 -81 -751 -261 -72 -71 -93 -101 -132 -180
-26 -52 -54 -122 -62 -155 -36 -139 -36 -361 0 -500 8 -33 36 -102 61 -154 85
-172 239 -302 450 -377 157 -56 296 -76 524 -77 245 0 413 22 651 88 l66 18
84 -36 c206 -88 433 -90 663 -6 153 56 297 162 366 269 17 27 93 185 169 352
155 341 177 386 257 525 57 99 162 248 170 240 2 -2 -12 -38 -31 -80 -103
-222 -124 -343 -134 -772 l-7 -320 -38 -105 c-45 -122 -55 -175 -35 -168 19 6
123 145 276 368 274 401 415 582 577 748 102 104 266 252 279 252 3 0 -49 -73
-116 -163 -209 -277 -352 -522 -413 -702 -36 -106 -43 -237 -19 -321 23 -81
89 -147 160 -162 131 -28 235 49 334 246 45 89 16 81 -37 -11 -48 -85 -112
-161 -153 -182 -84 -44 -143 12 -141 132 2 135 73 324 262 698 242 479 346
631 500 728 91 57 276 146 368 177 100 33 215 57 322 68 57 5 75 11 75 22 0
19 -75 16 -230 -10 -192 -33 -336 -94 -627 -267 -366 -218 -703 -546 -1034
-1007 -49 -68 -90 -123 -91 -122 -1 1 17 62 42 136 55 171 69 268 60 435 -10
205 31 426 110 591 l34 71 49 -5 c37 -3 52 0 66 13 22 23 17 46 -15 64 -24 13
-33 13 -88 -4 l-61 -18 -148 46 c-171 54 -320 93 -377 100 -22 2 -83 0 -135
-4z m-1950 -433 c188 -34 334 -124 425 -262 l36 -54 -44 -68 c-25 -37 -56 -94
-70 -127 l-25 -60 -568 3 c-313 1 -570 5 -572 7 -3 2 2 43 11 91 56 306 291
480 647 483 47 0 119 -6 160 -13z m1142 -149 c351 -128 434 -512 168 -778
-172 -171 -394 -192 -524 -48 -56 61 -79 120 -84 215 l-4 82 67 -6 68 -5 -6
124 c-6 142 -23 212 -75 321 l-38 78 61 19 c92 30 93 30 200 26 75 -2 117 -9
167 -28z m-638 -293 c9 -34 16 -75 16 -92 0 -26 -4 -30 -37 -36 -21 -3 -57 -6
-81 -6 -40 0 -43 2 -37 23 9 30 73 148 93 170 20 23 27 14 46 -59z m-209 -244
c-11 -17 -7 -205 6 -255 17 -72 60 -163 103 -218 21 -27 36 -50 34 -52 -11
-11 -223 -48 -330 -57 -321 -30 -609 44 -759 194 -85 86 -159 250 -159 354 0
29 3 33 33 37 72 9 1078 7 1072 -3z m371 -60 c7 -110 37 -191 95 -254 l50 -55
-23 -15 c-40 -26 -191 -93 -252 -112 l-58 -18 -29 34 c-39 48 -97 164 -114
230 -15 56 -20 196 -9 238 6 22 7 22 171 20 l165 -3 4 -65z"/>
</g>
</svg>
