<?xml version="1.0" standalone="no"?>
<!DOCTYPE svg PUBLIC "-//W3C//DTD SVG 20010904//EN"
 "http://www.w3.org/TR/2001/REC-SVG-20010904/DTD/svg10.dtd">
<svg version="1.0" xmlns="http://www.w3.org/2000/svg"
 width="600.000000pt" height="600.000000pt" viewBox="0 0 600.000000 600.000000"
 preserveAspectRatio="xMidYMid meet">

<g transform="translate(0.000000,600.000000) scale(0.100000,-0.100000)"
fill="#000000" stroke="none">
<path d="M3051 3964 c-130 -65 -224 -266 -281 -599 -41 -236 -37 -491 10 -733
24 -123 26 -236 5 -317 -18 -70 -76 -196 -111 -242 -19 -25 -24 -43 -24 -92
l0 -61 255 0 255 0 1 43 c2 70 -1 79 -51 162 -116 192 -198 399 -239 601 -28
141 -44 341 -36 454 17 224 97 400 184 400 73 0 90 -65 181 -670 63 -418 82
-516 125 -636 65 -184 159 -304 264 -339 75 -24 168 -17 221 19 51 33 75 81
96 192 14 77 16 139 11 454 -5 404 5 674 28 764 19 74 70 171 103 197 41 32
75 25 116 -23 95 -111 143 -402 133 -813 -6 -256 -20 -347 -77 -494 -39 -101
-104 -175 -164 -186 l-36 -7 0 -59 0 -59 413 2 412 3 0 54 c0 52 -2 55 -30 64
-115 37 -137 147 -128 647 12 676 -56 1031 -231 1206 -164 163 -371 112 -485
-120 -111 -227 -152 -482 -156 -977 -2 -179 -6 -340 -10 -357 -8 -39 -34 -55
-68 -43 -69 26 -86 102 -202 866 -46 305 -65 387 -119 500 -51 109 -103 170
-171 201 -67 32 -127 31 -194 -2z"/>
<path d="M1324 3599 c-359 -28 -634 -188 -759 -443 -25 -50 -52 -118 -60 -151
-36 -139 -36 -361 0 -500 8 -33 36 -102 61 -154 38 -77 62 -110 128 -176 134
-135 299 -214 535 -257 136 -24 449 -29 591 -9 206 29 424 86 570 148 l45 20
0 136 1 135 -26 -18 c-89 -62 -276 -135 -453 -174 -422 -95 -818 -33 -1008
156 -85 86 -159 250 -159 354 0 32 0 32 63 39 34 4 403 5 820 3 l757 -3 0 87
c0 527 -454 858 -1106 807z m276 -213 c261 -48 444 -208 504 -442 9 -34 16
-76 16 -92 0 -30 -2 -31 -57 -38 -59 -7 -1273 3 -1281 11 -3 2 2 43 11 91 56
306 291 480 647 483 47 0 119 -6 160 -13z"/>
</g>
</svg>
