<?xml version="1.0" encoding="UTF-8"?><svg id="Layer_2" xmlns="http://www.w3.org/2000/svg" viewBox="0 0 1920 713.3"><defs><style>.cls-1{fill:#000000;}</style></defs><g id="Layer_1-2"><g><path class="cls-1" d="M812.53,628.04c-106.15,51.81-243.89,78.35-371.51,78.35C151.64,706.39,0,573.7,0,350.04S156.69,0,404.37,0c233.78,0,418.27,126.37,403.11,371.52-274.22-2.53-499.14-2.53-679.85,0,11.37,150.38,106.15,246.41,336.13,245.15,116.26-1.27,266.64-37.91,348.77-99.83-6.32,31.59-6.32,80.87,0,111.2ZM126.37,323.5c171.86,3.79,365.2,3.79,554.75,2.53-10.11-157.96-131.42-241.36-276.74-241.36-166.8,0-270.43,84.67-278,238.83Zm686.17,193.34s97.74-52.58,195.61-201.82c62.48-95.27,7.82,143.54,7.82,143.54l-47.7,50.95s-23.31,58-155.73,118.54c-98.1,44.85,0-111.2,0-111.2h0Z"/><path class="cls-1" d="M947.16,155.49c17.84-12.39,35.24-26.26,52.21-41.62,16.97-15.36,34.13-30.22,51.47-44.6,17.34-14.37,35.24-27.19,53.7-38.46,18.46-11.27,38.09-19.01,58.9-23.23,5.95-1.24,10.96,.06,15.05,3.9,4.09,3.84,7.31,8.86,9.66,15.05,2.35,6.19,3.78,13.01,4.27,20.44,.49,7.43,0,14-1.49,19.7-6.44,25.52-13.63,51.1-21.55,76.74-7.93,25.64-16.11,51.35-24.53,77.11-8.42,25.77-16.91,51.6-25.46,77.48-8.55,25.89-16.91,51.72-25.08,77.48,18.58-24.53,37.97-48.5,58.16-71.91,20.19-23.41,40.69-46.02,61.5-67.82,20.81-21.8,41.68-42.55,62.62-62.25,20.93-19.7,41.5-38.03,61.69-55,20.19-16.97,39.7-32.27,58.53-45.9,18.83-13.62,36.54-25.27,53.14-34.93,16.6-9.66,31.77-17.09,45.52-22.3,13.75-5.2,25.58-7.8,35.49-7.8,5.45,0,10.22,1.61,14.31,4.83,4.09,3.22,7.43,7.37,10.03,12.45,2.6,5.08,4.33,10.59,5.2,16.54,.87,5.95,.8,11.52-.19,16.72-6.19,27.5-13.75,54.81-22.67,81.94-8.92,27.13-18.46,54.26-28.62,81.39-10.16,27.13-20.57,54.2-31.22,81.2-10.65,27.01-20.57,54.01-29.73,81.01,14.62-16.85,30.35-35.06,47.2-54.63,16.85-19.57,34.5-39.58,52.96-60.02,18.46-20.44,37.47-40.94,57.04-61.5,19.57-20.56,39.27-40.38,59.09-59.46,19.82-19.08,39.64-36.91,59.46-53.51,19.82-16.6,39.21-31.15,58.16-43.67,18.95-12.51,37.22-22.61,54.81-30.29,17.59-7.68,34.06-12.01,49.43-13.01,5.95-.49,11.21,.99,15.79,4.46,4.58,3.47,8.36,7.99,11.33,13.56,2.97,5.57,4.95,11.65,5.95,18.21,.99,6.57,.87,12.82-.37,18.77-9.91,41.62-22.17,82.63-36.79,123.01-14.62,40.38-29.67,80.89-45.15,121.52-15.49,40.64-30.47,81.64-44.97,123.01-14.49,41.38-26.7,83.74-36.61,127.1-.5,3.22-1.11,7.12-1.86,11.71-.74,4.59-1.11,8.92-1.11,13.01s.68,7.43,2.04,10.03c1.36,2.6,3.78,3.66,7.25,3.16,7.18-.99,14-3.4,20.44-7.25,6.44-3.84,12.76-8.3,18.95-13.38,6.19-5.07,12.32-10.28,18.4-15.61,6.07-5.33,12.32-10.09,18.77-14.31l18.95,12.64c-16.85,11.89-33.7,25.71-50.54,41.44-16.85,15.74-33.63,30.85-50.36,45.34-16.72,14.49-33.63,27.01-50.73,37.53-17.09,10.53-34.19,16.91-51.28,19.14-6.44,.74-11.71-.93-15.79-5.02-4.09-4.09-7.25-9.41-9.48-15.98-2.23-6.56-3.47-13.69-3.72-21.37-.25-7.68,.37-14.62,1.86-20.81,10.41-42.37,22.61-84.48,36.61-126.35,14-41.87,28.55-83.67,43.67-125.42,15.11-41.74,30.04-83.55,44.78-125.42,14.74-41.87,27.93-83.86,39.58-125.98,.99-3.22,1.36-7,1.11-11.33-.25-4.33-.99-8.3-2.23-11.89-1.24-3.59-3.04-6.44-5.39-8.55-2.36-2.1-5.14-2.79-8.36-2.04-8.42,2.23-20.19,8.68-35.3,19.32-15.11,10.65-32.39,24.71-51.84,42.18-19.45,17.47-40.32,37.72-62.62,60.76-22.3,23.04-44.72,48-67.26,74.88-22.55,26.89-44.6,55.06-66.15,84.55-21.55,29.49-41.19,59.46-58.9,89.93-17.72,30.47-32.89,60.76-45.52,90.86-12.64,30.1-21.43,59.15-26.39,87.15l-129.7,63.18c16.6-46.33,33.69-93.46,51.28-141.4,17.59-47.94,34.93-96.19,52.03-144.75,17.09-48.56,33.51-97.37,49.24-146.42,15.73-49.05,29.92-97.86,42.55-146.42,.99-3.47,1.55-7.12,1.67-10.96,.12-3.84-.31-7.49-1.3-10.96-.99-3.47-2.73-6.32-5.2-8.55-2.48-2.23-5.95-3.34-10.41-3.34-2.97,0-10.41,4.15-22.3,12.45-11.89,8.3-26.57,20.07-44.04,35.3-17.47,15.24-37.04,33.51-58.72,54.81-21.68,21.31-44.04,44.91-67.08,70.79-23.04,25.89-46.08,53.7-69.12,83.43-23.04,29.73-44.54,60.64-64.48,92.72-19.95,32.09-37.6,65.03-52.96,98.85-15.36,33.82-27.13,67.58-35.3,101.27l-119.66,58.72c14.37-45.83,29.23-91.79,44.6-137.87,15.36-46.08,30.66-92.22,45.9-138.43,15.24-46.2,30.16-92.35,44.78-138.43,14.62-46.08,28.62-92.29,41.99-138.62,.99-3.47,1.61-7.12,1.86-10.96,.25-3.84,0-7.49-.74-10.96-.74-3.47-2.11-6.32-4.09-8.55-1.98-2.23-4.59-3.34-7.8-3.34-8.67,0-16.79,1.67-24.34,5.02-7.56,3.34-14.81,7.5-21.74,12.45-6.94,4.96-13.63,10.41-20.07,16.35-6.44,5.95-12.76,11.52-18.95,16.72l-13.75-16.72Z"/></g></g></svg>
